<svg xmlns="http://www.w3.org/2000/svg" xmlns:xlink="http://www.w3.org/1999/xlink" version="1.1" x="0px" y="0px" viewBox="0 0 100 125" style="enable-background:new 0 0 100 100;" xml:space="preserve"><g><path d="M33.0854492,92.4589844c-0.2358398,0-0.4736328-0.0556641-0.6938477-0.1699219   c-0.6298828-0.3291016-0.9428711-1.0556641-0.7485352-1.7392578l10.347168-36.4658203H23.84375   c-0.4790039,0-0.9291992-0.2285156-1.2119141-0.6162109c-0.2822266-0.3867188-0.362793-0.8857422-0.2163086-1.3417969   L36.3666992,8.5839844c0.1992188-0.6210938,0.7768555-1.0424805,1.4287109-1.0424805h23.5444336   c0.4794922,0,0.9296875,0.2290039,1.2119141,0.6157227c0.2822266,0.387207,0.3623047,0.8857422,0.2167969,1.3417969   l-8.7607422,27.3393555H76.15625c0.5800781,0,1.1074219,0.3339844,1.3554688,0.8579102s0.1728516,1.1435547-0.1943359,1.5922852   L34.246582,91.9091797C33.9536133,92.2666016,33.5234375,92.4589844,33.0854492,92.4589844z M25.8994141,51.0839844h18.0756836   c0.4702148,0,0.9130859,0.2207031,1.1967773,0.5957031c0.2832031,0.375,0.3745117,0.8613281,0.2460938,1.3134766   l-8.9169922,31.4248047l36.4892578-44.5795898H51.9521484c-0.4794922,0-0.9296875-0.2290039-1.2119141-0.6157227   c-0.2822266-0.387207-0.362793-0.8857422-0.2163086-1.3417969l8.7602539-27.3393555h-20.394043L25.8994141,51.0839844z"/></g><text x="0" y="115" fill="#000000" font-size="5px" font-weight="bold" font-family="'Helvetica Neue', Helvetica, Arial-Unicode, Arial, Sans-serif"></text><text x="0" y="120" fill="#000000" font-size="5px" font-weight="bold" font-family="'Helvetica Neue', Helvetica, Arial-Unicode, Arial, Sans-serif">from the Noun Project</text></svg>